HIERARCHY
ROOT RootJoint
{
    OFFSET   0.000000   0.000000   0.000000
    CHANNELS 6 Xposition Yposition Zposition Xrotation Yrotation Zrotation
    JOINT pelvis_lowerback
    {
        OFFSET   0.000000   0.093605   0.000000
        CHANNELS 3 Xrotation Yrotation Zrotation
        JOINT lowerback_torso
        {
            OFFSET   0.000000   0.100000   0.000000
            CHANNELS 3 Xrotation Yrotation Zrotation
            JOINT torso_head
            {
                OFFSET   0.000000   0.282350   0.000000
                CHANNELS 3 Xrotation Yrotation Zrotation
                End Site
                {
                    OFFSET   0.000000   0.192650   0.000000
                }
            }
            JOINT rTorso_Clavicle
            {
                OFFSET  -0.001000   0.157500   0.000000
                CHANNELS 3 Xrotation Yrotation Zrotation
                JOINT rShoulder
                {
                    OFFSET  -0.117647   0.000000   0.000000
                    CHANNELS 3 Xrotation Yrotation Zrotation
                    JOINT rElbow
                    {
                        OFFSET  -0.245000   0.000000   0.000000
                        CHANNELS 3 Xrotation Yrotation Zrotation
                        JOINT rWrist
                        {
                            OFFSET  -0.240000   0.000000   0.000000
                            CHANNELS 3 Xrotation Yrotation Zrotation
                            End Site
                            {
                                OFFSET  -0.116353  -0.002500   0.000000
                            }
                        }
                    }
                }
            }
            JOINT lTorso_Clavicle
            {
                OFFSET   0.001000   0.157500   0.000000
                CHANNELS 3 Xrotation Yrotation Zrotation
                JOINT lShoulder
                {
                    OFFSET   0.117647   0.000000   0.000000
                    CHANNELS 3 Xrotation Yrotation Zrotation
                    JOINT lElbow
                    {
                        OFFSET   0.245000   0.000000   0.000000
                        CHANNELS 3 Xrotation Yrotation Zrotation
                        JOINT lWrist
                        {
                            OFFSET   0.240000   0.000000   0.000000
                            CHANNELS 3 Xrotation Yrotation Zrotation
                            End Site
                            {
                                OFFSET   0.116353  -0.002500   0.000000
                            }
                        }
                    }
                }
            }
        }
    }
    JOINT rHip
    {
        OFFSET  -0.100000  -0.051395   0.000000
        CHANNELS 3 Xrotation Yrotation Zrotation
        JOINT rKnee
        {
            OFFSET   0.000000  -0.410000   0.000000
            CHANNELS 3 Xrotation Yrotation Zrotation
            JOINT rAnkle
            {
                OFFSET   0.000000  -0.390000   0.000000
                CHANNELS 3 Xrotation Yrotation Zrotation
                JOINT rToeJoint
                {
                    OFFSET   0.000000  -0.050000   0.130000
                    CHANNELS 3 Xrotation Yrotation Zrotation
                    End Site
                    {
                        OFFSET  -0.010000   0.002000   0.060000
                    }
                }
            }
        }
    }
    JOINT lHip
    {
        OFFSET   0.100000  -0.051395   0.000000
        CHANNELS 3 Xrotation Yrotation Zrotation
        JOINT lKnee
        {
            OFFSET   0.000000  -0.410000   0.000000
            CHANNELS 3 Xrotation Yrotation Zrotation
            JOINT lAnkle
            {
                OFFSET   0.000000  -0.390000   0.000000
                CHANNELS 3 Xrotation Yrotation Zrotation
                JOINT lToeJoint
                {
                    OFFSET   0.000000  -0.050000   0.130000
                    CHANNELS 3 Xrotation Yrotation Zrotation
                    End Site
                    {
                        OFFSET   0.010000   0.002000   0.060000
                    }
                }
            }
        }
    }
}
MOTION
Frames: 12
Frame Time:   0.008333
 -2.376719   0.925631   3.975860   0.000000   0.000000   0.000000   0.000000   0.000000   0.000000   0.000000   0.000000   0.000000   0.000000   0.000000   0.000000   0.000000   0.000000   0.000000   0.000000   0.000000   0.000000   0.000000   0.000000   0.000000   0.000000   0.000000   0.000000   0.000000   0.000000   0.000000   0.000000   0.000000   0.000000   0.000000   0.000000   0.000000   0.000000   0.000000   0.000000   0.000000   0.000000   0.000000   0.000000   0.000000   0.000000   0.000000   0.000000   0.000000   0.000000   0.000000   0.000000   0.000000   0.000000   0.000000   0.000000   0.000000   0.000000   0.000000   0.000000   0.000000   0.000000   0.000000   0.000000
 -2.376519   0.926342   3.976180  -0.651781   0.038287   0.056815   0.620440   0.028428  -0.041043   0.213930  -0.195548  -0.005519  -0.167084   0.083106   0.059933   0.187614  -0.226181   0.606734   1.023221   0.396146   1.882000   0.022083   1.004807  -0.012386   0.565171  -0.611393  -2.833797   0.267931   0.245123  -0.666428   1.231997  -0.128796  -1.846239   0.017977  -0.818192   0.012136   0.581831   0.366300   2.804454   0.562081   0.173919  -0.224624   0.645702   0.000955   0.001193  -0.805911  -0.101689   0.084385  -0.048735  -0.000035  -0.000048   0.465026  -0.034044   0.046754   0.954292  -0.000859   0.000048  -1.035612   0.177599   0.134895   0.274692  -0.000569   0.000437
 -2.376265   0.927528   3.976625  -1.350403   0.062168   0.118059   1.196223   0.051484  -0.073910   0.479219  -0.390235  -0.008884  -0.305180   0.159489   0.122627   0.373305  -0.351252   1.966255   2.008893   0.908309   4.371173   0.051899   1.997731  -0.021495   1.165661  -0.890239  -4.923321   0.537156   0.394766  -2.099880   2.435238  -0.367427  -4.318325   0.042049  -1.622051   0.021265   1.209380   0.492080   4.843897   1.164872   0.339467  -0.574757   1.368851   0.002631   0.002114  -1.558935  -0.198204   0.161393  -0.134369  -0.000186  -0.000111   0.982213  -0.057327   0.193896   2.002195  -0.002584   0.000127  -2.002463   0.345157   0.265136   0.483499  -0.001066   0.000664
 -2.375987   0.928745   3.977159  -2.014634   0.069309   0.176189   1.710299   0.071134  -0.098714   0.717361  -0.573834  -0.008633  -0.436160   0.230195   0.183388   0.545357  -0.400143   3.776230   2.946912   1.510401   7.257785   0.081567   2.943482  -0.027325   1.750040  -1.003858  -6.134997   0.789425   0.463567  -3.986288   3.600333  -0.711057  -7.197607   0.066022  -2.390041   0.027511   1.820626   0.479780   5.996295   1.745077   0.485409  -1.016774   2.067626   0.004506   0.002537  -2.260923  -0.290712   0.231381  -0.217512  -0.000376  -0.000138   1.495529  -0.072082   0.432350   3.012797  -0.004672   0.000224  -2.903994   0.501014   0.390193   0.671327  -0.001538   0.000788
 -2.375702   0.929671   3.977769  -2.631652   0.060602   0.229743   2.170216   0.087404  -0.117598   0.920334  -0.747143  -0.004970  -0.564260   0.296000   0.241162   0.703797  -0.400971   5.833879   3.836098   2.190169  10.408495   0.107391   3.837171  -0.030717   2.315530  -1.021249  -6.692074   1.021935   0.477297  -6.117295   4.726805  -1.152400 -10.344624   0.086965  -3.119207   0.031625   2.413178   0.373150   6.495616   2.292131   0.613013  -1.529056   2.724262   0.006293   0.002567  -2.916534  -0.379167   0.295005  -0.300086  -0.000586  -0.000138   1.992675  -0.079793   0.746600   3.965656  -0.006789   0.000341  -3.746109   0.645829   0.510027   0.837292  -0.001931   0.000835
 -2.375418   0.930067   3.978450  -3.201946   0.036125   0.278498   2.583773   0.100112  -0.132143   1.092650  -0.911398   0.001061  -0.688330   0.357315   0.295737   0.849249  -0.374176   8.004935   4.674682   2.936875  13.732839   0.127843   4.677448  -0.032356   2.860431  -0.981096  -6.807585   1.233639   0.455936  -8.358006   5.810498  -1.681748 -13.659394   0.103623  -3.808327   0.034178   2.985554   0.202366   6.557704   2.805343   0.724445  -2.094417   3.337958   0.007849   0.002326  -3.528985  -0.463448   0.352886  -0.381299  -0.000793  -0.000120   2.471065  -0.081627   1.121468   4.860291  -0.008739   0.000466  -4.532912   0.780291   0.624613   0.983938  -0.002230   0.000829
 -2.375191   0.929742   3.979192  -3.729147  -0.003192   0.325892   2.957826   0.109493  -0.151465   1.240657  -1.067329  -0.007966  -0.807187   0.414351   0.351741   0.983424  -0.334080  10.209366   5.460758   3.741617  17.176122   0.142599   5.464710  -0.032770   3.382964  -0.908202  -6.630511   1.426738   0.413605 -10.675877   6.787506  -2.257790 -16.910807   0.115305  -4.459121   0.035246   3.538030  -0.024721   6.253563   3.286279   0.821612  -2.697325   3.911223   0.009087   0.001919  -4.101130  -0.543571   0.405515  -0.460512  -0.000981  -0.000088   2.930242  -0.078654   1.544466   5.699950  -0.010448   0.000590  -5.267976   0.905001   0.733886   1.114029  -0.002441   0.000789
 -2.375022   0.927963   3.979419  -3.870120  -0.116315   0.267542   2.984564   0.124830  -0.050728   1.387017  -1.180467   0.002392  -1.041720   0.332633   0.321367   1.237611  -0.121314  11.854291   6.316747   4.482773  20.299783   0.155944   6.406266  -0.036719   3.886763  -0.737399  -5.243255   1.740684   0.324496 -12.231043   7.608716  -2.827917 -20.203295   0.124102  -5.193131   0.037445   4.079747  -0.415813   4.876087   3.174328   0.708506  -3.132464   4.756079   0.010766  -0.000635  -4.433660  -0.637382   0.722501  -0.417180  -0.000716  -0.000197   3.053814   0.044748   2.036922   5.971112  -0.009390   0.000643  -5.658071   1.034357   0.737978   1.278892  -0.002582   0.000858
 -2.374867   0.924951   3.979439  -3.968175  -0.207502   0.194453   3.041550   0.126957   0.060875   1.515452  -1.287044   0.028390  -1.272443   0.249278   0.289697   1.452368   0.117753  13.202667   7.073248   5.234741  23.080945   0.159714   7.297945  -0.039016   4.386350  -0.473580  -3.945397   2.017425   0.213411 -13.486825   8.341721  -3.409294 -23.147248   0.125536  -5.886437   0.038441   4.601205  -0.876700   3.571228   3.023465   0.589292  -3.503171   5.551391   0.011512  -0.002497  -4.738457  -0.728700   1.018119  -0.348958  -0.000484  -0.000351   3.102534   0.160032   2.497696   6.119327  -0.008013   0.000620  -6.025023   1.155137   0.742771   1.440563  -0.002611   0.000919
 -2.374712   0.920832   3.979372  -4.050593  -0.283761   0.120643   3.120297   0.129745   0.172265   1.644058  -1.384557   0.061993  -1.484017   0.170945   0.260272   1.633133   0.359965  14.335315   7.740869   5.976212  25.580872   0.157153   8.135698  -0.039883   4.865670  -0.185648  -2.880968   2.260087   0.094248 -14.524940   8.995521  -3.986235 -25.793992   0.122209  -6.536501   0.038313   5.095544  -1.340542   2.504522   2.879666   0.478900  -3.829755   6.289049   0.011593  -0.003707  -5.022492  -0.815236   1.293636  -0.283913  -0.000316  -0.000452   3.102827   0.267066   2.912496   6.224086  -0.006720   0.000572  -6.369043   1.267550   0.747938   1.587518  -0.002522   0.000945
 -2.374555   0.915697   3.979279  -4.123149  -0.351347   0.048596   3.210407   0.137473   0.282032   1.772658  -1.470601   0.100470  -1.677008   0.097908   0.232729   1.788269   0.593681  15.302224   8.332223   6.694050  27.845075   0.150574   8.919613  -0.039609   5.322490   0.099999  -2.012965   2.477415  -0.019960 -15.396223   9.581580  -4.545279 -28.190313   0.115933  -7.142866   0.037254   5.562636  -1.782467   1.642353   2.751651   0.376845  -4.118277   6.976140   0.011237  -0.004453  -5.287268  -0.896989   1.550453  -0.223056  -0.000199  -0.000511   3.069397   0.366387   3.281342   6.304464  -0.005582   0.000514  -6.690703   1.372112   0.753275   1.722678  -0.002361   0.000941
 -2.374378   0.916035   3.979615  -4.384063  -0.447158   0.133803   3.398828   0.161096   0.267982   1.986940  -1.538551   0.089828  -1.850168   0.030114   0.202711   1.924201   0.836753  16.518124   8.850412   7.396525  30.025781   0.144099   9.636749  -0.038324   5.755583   0.284396  -1.357760   2.666527  -0.144343 -16.489552  10.098077  -5.097447 -30.466696   0.109781  -7.693767   0.035434   6.002208  -2.087354   1.017176   2.672795   0.416459  -4.268474   7.720441   0.009265  -0.004242  -5.649758  -0.811526   2.027725  -0.330691   0.000234  -0.000411   3.082294   0.412988   3.189459   6.876438  -0.004470   0.000315  -6.715774   1.388398   0.552132   1.354482  -0.002522   0.000806
